<svg xmlns="http://www.w3.org/2000/svg" viewBox="0 0 512 512">
  <defs>
    <linearGradient id="grad" x1="0%" y1="0%" x2="100%" y2="100%">
      <stop offset="0%" style="stop-color:#3B82F6;stop-opacity:1" />
      <stop offset="100%" style="stop-color:#1D4ED8;stop-opacity:1" />
    </linearGradient>
  </defs>
  <!-- Background for maskable icon support -->
  <rect width="512" height="512" fill="#0b0f1a"/>
  
  <!-- Outer Glow -->
  <circle cx="256" cy="256" r="180" fill="#3B82F6" opacity="0.2" />
  
  <!-- Brain/Mind Shape (Vibrant Blue) -->
  <path d="M256 100c-60 0-108 48-108 108 0 20 5.5 39 15.5 55-9.5 16-15.5 35-15.5 55 0 60 48 108 108 108s108-48 108-108c0-20-5.5-39-15.5-55 9.5-16 15.5-35 15.5-55 0-60-48-108-108-108z" fill="url(#grad)"/>
  
  <!-- High Contrast Inner Details -->
  <path d="M256 160v192M160 256h192" stroke="#FFFFFF" stroke-width="28" stroke-linecap="round" opacity="0.9"/>
  <circle cx="256" cy="256" r="45" fill="none" stroke="#FFFFFF" stroke-width="20" opacity="0.8"/>
</svg>