<svg xmlns="http://www.w3.org/2000/svg" viewBox="0 0 512 512">
  <defs>
    <linearGradient id="grad" x1="0%" y1="0%" x2="100%" y2="100%">
      <stop offset="0%" style="stop-color:#60A5FA;stop-opacity:1" />
      <stop offset="100%" style="stop-color:#2563EB;stop-opacity:1" />
    </linearGradient>
  </defs>
  <rect width="512" height="512" rx="100" fill="#111827"/>
  <path d="M256 80c-70.7 0-128 57.3-128 128 0 24.3 6.8 47 18.5 66.2-11.7 19.2-18.5 41.9-18.5 66.2 0 70.7 57.3 128 128 128s128-57.3 128-128c0-24.3-6.8-47-18.5-66.2 11.7-19.2 18.5-41.9 18.5-66.2 0-70.7-57.3-128-128-128z" fill="url(#grad)"/>
  <path d="M256 120c-49.7 0-90 40.3-90 90 0 16.6 4.5 32.2 12.4 45.6-7.9 13.4-12.4 29-12.4 45.6 0 49.7 40.3 90 90 90s90-40.3 90-90c0-16.6-4.5-32.2-12.4-45.6 7.9-13.4 12.4-29 12.4-45.6 0-49.7-40.3-90-90-90z" fill="#FFFFFF" fill-opacity="0.2"/>
  <path d="M256 160v192M160 256h192" stroke="#FFFFFF" stroke-width="20" stroke-linecap="round" opacity="0.3"/>
  <circle cx="256" cy="256" r="40" fill="none" stroke="#FFFFFF" stroke-width="15" opacity="0.5"/>
</svg>